<svg class="injected-svg" id="svg-79ac747d-e8e9-4002-b5d3-6f97cf03d515" height="146" width="460" viewBox="0 0 540 508" xmlns="http://www.w3.org/2000/svg"><path xmlns="http://www.w3.org/2000/svg" id="SvgjsPath13516762" d="M34.75-18.05L34.75-18.05Q34.75-21.12 32.50-23.04Q30.24-24.96 26.83-26.54Q23.42-28.13 19.44-29.81Q15.46-31.49 12.05-33.94Q8.64-36.38 6.38-40.03Q4.13-43.68 4.13-49.34L4.13-49.34Q4.13-54.24 5.76-57.84Q7.39-61.44 10.42-63.84Q13.44-66.24 17.57-67.39Q21.70-68.54 26.78-68.54L26.78-68.54Q32.64-68.54 37.82-67.54Q43.01-66.53 46.37-64.61L46.37-64.61L42.24-53.57Q40.13-54.91 35.90-56.02Q31.68-57.12 26.78-57.12L26.78-57.12Q22.18-57.12 19.73-55.30Q17.28-53.47 17.28-50.40L17.28-50.40Q17.28-47.52 19.54-45.60Q21.79-43.68 25.20-42.05Q28.61-40.42 32.59-38.69Q36.58-36.96 39.98-34.51Q43.39-32.06 45.65-28.46Q47.90-24.86 47.90-19.49L47.90-19.49Q47.90-14.11 46.13-10.22Q44.35-6.34 41.14-3.74Q37.92-1.15 33.36 0.10Q28.80 1.34 23.33 1.34L23.33 1.34Q16.13 1.34 10.66 0Q5.18-1.34 2.59-2.69L2.59-2.69L6.82-13.92Q7.87-13.34 9.55-12.67Q11.23-12 13.34-11.42Q15.46-10.85 17.81-10.46Q20.16-10.08 22.66-10.08L22.66-10.08Q28.51-10.08 31.63-12.05Q34.75-14.02 34.75-18.05ZM98.21 0L85.73 0L85.73-27.26Q85.73-33.12 84.10-35.71Q82.46-38.30 78.14-38.30L78.14-38.30Q74.98-38.30 72.34-36.14Q69.70-33.98 68.83-30.62L68.83-30.62L68.83 0L56.35 0L56.35-67.20L68.83-67.20L68.83-42.62L69.22-42.62Q71.52-45.70 74.88-47.52Q78.24-49.34 83.42-49.34L83.42-49.34Q87.07-49.34 89.86-48.38Q92.64-47.42 94.51-45.22Q96.38-43.01 97.30-39.22Q98.21-35.42 98.21-29.86L98.21-29.86L98.21 0ZM111.36-35.90L108.38-45.22Q112.22-46.94 117.50-47.95Q122.78-48.96 128.54-48.96L128.54-48.96Q133.54-48.96 136.90-47.76Q140.26-46.56 142.22-44.35Q144.19-42.14 145.01-39.07Q145.82-36 145.82-32.16L145.82-32.16Q145.82-27.94 145.54-23.66Q145.25-19.39 145.20-15.26Q145.15-11.14 145.44-7.25Q145.73-3.36 146.88 0.10L146.88 0.10L136.70 0.10L134.69-6.53L134.21-6.53Q132.29-3.55 128.88-1.39Q125.47 0.77 120.10 0.77L120.10 0.77Q116.74 0.77 114.05-0.24Q111.36-1.25 109.44-3.12Q107.52-4.99 106.46-7.54Q105.41-10.08 105.41-13.25L105.41-13.25Q105.41-17.66 107.38-20.69Q109.34-23.71 113.04-25.58Q116.74-27.46 121.87-28.18Q127.01-28.90 133.34-28.61L133.34-28.61Q134.02-33.98 132.58-36.34Q131.14-38.69 126.14-38.69L126.14-38.69Q122.40-38.69 118.22-37.92Q114.05-37.15 111.36-35.90L111.36-35.90ZM124.22-9.50L124.22-9.50Q127.97-9.50 130.18-11.18Q132.38-12.86 133.44-14.78L133.44-14.78L133.44-21.02Q130.46-21.31 127.73-21.12Q124.99-20.93 122.88-20.26Q120.77-19.58 119.52-18.34Q118.27-17.09 118.27-15.17L118.27-15.17Q118.27-12.48 119.86-10.99Q121.44-9.50 124.22-9.50ZM153.79 0L153.79-10.56L172.70-33.31L177.60-37.44L153.79-37.44L153.79-48L191.42-48L191.42-37.44L172.70-14.30L167.90-10.56L191.42-10.56L191.42 0L153.79 0ZM201.31 0L201.31-48L213.79-48L213.79 0L201.31 0ZM199.49-61.54L199.49-61.54Q199.49-64.32 201.55-66.29Q203.62-68.26 207.26-68.26L207.26-68.26Q210.91-68.26 213.17-66.29Q215.42-64.32 215.42-61.54L215.42-61.54Q215.42-58.75 213.17-56.88Q210.91-55.01 207.26-55.01L207.26-55.01Q203.62-55.01 201.55-56.88Q199.49-58.75 199.49-61.54ZM253.63 0L241.92-19.87L238.56-19.87L238.56 0L226.08 0L226.08-67.20L238.56-67.20L238.56-27.55L241.44-28.90L252.38-48L266.11-48L254.59-29.76L249.70-26.11L254.98-22.37L267.94 0L253.63 0ZM300.77 0L289.06-19.87L285.70-19.87L285.70 0L273.22 0L273.22-67.20L285.70-67.20L285.70-27.55L288.58-28.90L299.52-48L313.25-48L301.73-29.76L296.83-26.11L302.11-22.37L315.07 0L300.77 0Z" fill="#ffffff" fontsize="96" transform="matrix(1,0,0,1,109.66999999999999,281.1)"></path></svg>